<svg xmlns="http://www.w3.org/2000/svg" viewBox="0 0 64 64" role="img" aria-label="Khairpur Date Palm mark"><rect width="64" height="64" rx="18" fill="#123c2b"/><path d="M32 49V24M32 26C26 18 20 17 13 18c4 6 10 9 19 8Zm0 0c6-9 12-10 20-8-5 6-11 9-20 8Zm0-5c-3-7-2-12 1-17 5 5 5 11-1 17Zm-2 8c-7-4-13-3-18 1 5 4 11 4 18-1Zm4 0c7-4 13-3 18 1-5 4-11 4-18-1Z" fill="#d1a24b" stroke="#d1a24b" stroke-linecap="round" stroke-linejoin="round" stroke-width="2"/><path d="M25 51h14" stroke="#d1a24b" stroke-linecap="round" stroke-width="3"/></svg>
